#N canvas 88 312 1051 800 12;
#X declare -lib zexy;
#X obj 51 344 declare -lib zexy;
#X obj 565 93 loadbang;
#X msg 566 131 1;
#X obj 565 164 metro 1000;
#X obj 565 196 time, f 10;
#X obj 563 267 * 10000;
#X obj 587 234 * 100;
#X obj 566 303 +;
#X obj 568 347 +;
#X msg 567 381 set \$1;
#X msg 569 426 191805;
#X obj 476 193 date GMT;
#X obj 441 235 - 2000;
#X obj 441 264 * 10000;
#X obj 484 300 * 100;
#X obj 487 370 +;
#X obj 456 407 +;
#X msg 432 503 set \$1;
#X obj 451 580 makefilename;
#X msg 452 679 open -bytes 3 rec/sta-220330-191805.wav;
#X symbolatom 496 542 25 0 0 0 - - -;
#X msg 456 646 set open -bytes 3 \$1;
#X symbolatom 454 610 25 0 0 0 - - -;
#X msg 339 703 start;
#X msg 399 705 stop;
#X obj 450 792 writesf~ 2;
#X obj 254 110 tgl 40 0 empty empty empty 17 7 0 10 -1 -258113 -1 0
1;
#X obj 338 620 sel 1 0;
#X obj 400 498 bng 15 250 50 0 empty empty empty 17 7 0 10 -262144
-1 -1;
#X msg 408 578 set;
#X obj 453 472 makefilename rec/sta-%d-%%d.wav;
#X obj 465 742 inlet~;
#X obj 526 742 inlet~;
#X obj 201 340 +;
#X floatatom 239 342 5 0 0 0 - - -;
#X obj 201 237 tgl 15 0 empty empty empty 17 7 0 10 -262144 -1 -1 0
1;
#X obj 239 367 / 1000;
#X floatatom 239 392 5 0 0 0 - - -;
#X obj 239 419 % 60;
#X floatatom 239 444 5 0 0 0 - - -;
#X obj 294 367 % 1000;
#X floatatom 294 443 5 0 0 0 - - -;
#X obj 201 271 metro 50;
#X msg 201 307 50;
#X msg 272 272 0;
#X obj 194 392 / 60;
#X floatatom 194 445 5 0 0 0 - - -;
#X obj 194 420 int;
#X obj 105 110 cnv 15 40 40 empty min 0 10 20 0 20 -228856 -66577 0
;
#X obj 53 556 s min;
#X msg 53 522 label \$1;
#X obj 53 495 makefilename %d;
#X obj 147 110 cnv 15 40 40 empty sec 0 10 20 0 20 -228856 -66577 0
;
#X obj 189 110 cnv 15 60 40 empty mils 0 10 20 0 20 -228856 -66577
0;
#X msg 169 524 label \$1;
#X obj 169 497 makefilename %d;
#X obj 169 558 s sec;
#X msg 284 523 label \$1;
#X obj 284 496 makefilename %d;
#X obj 284 557 s mils;
#X msg 255 698 1;
#X msg 262 755 0;
#X msg 709 624 set \$1;
#X symbolatom 106 158 25 0 0 0 - - -;
#X msg 751 655 rec/sta-220330-191805.wav;
#X obj 780 726 symbol;
#X obj 339 661 del 300;
#X connect 1 0 2 0;
#X connect 2 0 3 0;
#X connect 3 0 4 0;
#X connect 3 0 11 0;
#X connect 3 0 10 0;
#X connect 4 0 5 0;
#X connect 4 1 6 0;
#X connect 4 2 8 1;
#X connect 5 0 7 0;
#X connect 6 0 7 1;
#X connect 7 0 8 0;
#X connect 8 0 9 0;
#X connect 9 0 10 0;
#X connect 10 0 18 0;
#X connect 11 0 12 0;
#X connect 11 1 14 0;
#X connect 11 2 15 1;
#X connect 12 0 13 0;
#X connect 13 0 16 0;
#X connect 14 0 15 0;
#X connect 15 0 16 1;
#X connect 16 0 30 0;
#X connect 17 0 20 0;
#X connect 17 0 18 0;
#X connect 18 0 22 0;
#X connect 19 0 25 0;
#X connect 21 0 19 0;
#X connect 22 0 21 0;
#X connect 22 0 62 0;
#X connect 23 0 25 0;
#X connect 24 0 25 0;
#X connect 26 0 27 0;
#X connect 27 0 19 0;
#X connect 27 0 44 0;
#X connect 27 0 64 0;
#X connect 27 0 66 0;
#X connect 27 1 24 0;
#X connect 27 1 61 0;
#X connect 28 0 20 0;
#X connect 30 0 17 0;
#X connect 31 0 25 0;
#X connect 32 0 25 1;
#X connect 33 0 34 0;
#X connect 34 0 33 1;
#X connect 34 0 36 0;
#X connect 34 0 40 0;
#X connect 35 0 42 0;
#X connect 36 0 37 0;
#X connect 37 0 38 0;
#X connect 37 0 45 0;
#X connect 38 0 39 0;
#X connect 39 0 55 0;
#X connect 40 0 41 0;
#X connect 41 0 58 0;
#X connect 42 0 43 0;
#X connect 43 0 33 0;
#X connect 44 0 34 0;
#X connect 45 0 47 0;
#X connect 46 0 51 0;
#X connect 47 0 46 0;
#X connect 50 0 49 0;
#X connect 51 0 50 0;
#X connect 54 0 56 0;
#X connect 55 0 54 0;
#X connect 57 0 59 0;
#X connect 58 0 57 0;
#X connect 60 0 35 0;
#X connect 61 0 35 0;
#X connect 62 0 64 0;
#X connect 64 0 65 0;
#X connect 65 0 63 0;
#X connect 66 0 23 0;
#X connect 66 0 60 0;
#X coords 0 -1 1 1 200 80 2 100 100;
